PathFileType	4	(X/Y/Z)	./resultDataOpenSim/trcMotMarkerGrf/sub09/qtm-04-06.trc
DataRate	CameraRate	NumFrames	NumMarkers	Units	OrigDataRate	OrigDataStartFrame	OrigNumFrames
250.000000	250.000000	14	24	m	250.000000	190	506
Frame#	Time	L.Toe.Tip			R.Toe.Tip			L.Ankle.Lat			R.Ankle.Lat			L.Ankle.Med			R.Ankle.Med			L.Heel			R.Heel			L.Knee.Lat			R.Knee.Lat			L.Knee.Med			R.Knee.Med			L.Thigh.Upper			R.Thigh.Upper			L.ASIS			R.ASIS			V.Sacral			L.Acromium			R.Acromium			C7			L.Elbow			R.Elbow			L.Wrist.Lat			R.Wrist.Lat
		X1	Y1	Z1	X2	Y2	Z2	X3	Y3	Z3	X4	Y4	Z4	X5	Y5	Z5	X6	Y6	Z6	X7	Y7	Z7	X8	Y8	Z8	X9	Y9	Z9	X10	Y10	Z10	X11	Y11	Z11	X12	Y12	Z12	X13	Y13	Z13	X14	Y14	Z14	X15	Y15	Z15	X16	Y16	Z16	X17	Y17	Z17	X18	Y18	Z18	X19	Y19	Z19	X20	Y20	Z20	X21	Y21	Z21	X22	Y22	Z22	X23	Y23	Z23	X24	Y24	Z24

190	0.756	0.22888536	-0.033094681	0.0085933211	-0.56380667	0.057424647	0.093581522	0.083064716	-0.0036768245	-0.039283318	-0.6189236	0.19559113	0.13629586	0.097282616	0.016306	0.05718135	-0.56895199	0.19581274	0.051774629	0.0085342773	-0.037168904	0.0019498412	-0.66444809	0.2352878	0.074694644	0.12184993	0.40581813	-0.097986955	-0.21394514	0.3893178	0.21771846	0.12149645	0.41065474	0.02795249	-0.20240409	0.35771114	0.091243203	-0.075829453	0.77937832	-0.14906517	-0.14856216	0.77162577	0.22155483	-0.01334028	0.86652528	-0.078531992	-0.032062396	0.8524457	0.16312515	-0.1885729	0.91192866	0.027830365	-0.046799595	1.3101587	-0.13482124	-0.063207205	1.3202408	0.19829441	-0.12392102	1.3668563	0.030220803	-0.21062921	0.98692166	-0.18706121	-0.17609076	0.95664492	0.28288376	-0.14233338	0.73956991	-0.24059806	0.063073205	0.8203902	0.23821884
191	0.76	0.22896522	-0.033203413	0.0085557312	-0.55929807	0.059291166	0.094680947	0.083255828	-0.0038613272	-0.039315073	-0.60844612	0.20019556	0.13798978	0.09754533	0.016170686	0.05721479	-0.55861214	0.19903421	0.053371935	0.008561971	-0.03708697	0.0019262638	-0.65281559	0.24147074	0.076793806	0.12541592	0.4047335	-0.09769556	-0.20023723	0.38762904	0.21736302	0.12559571	0.40930778	0.027432701	-0.1905221	0.35625486	0.091469284	-0.069103856	0.77912307	-0.1494216	-0.14126581	0.77099294	0.22107809	-0.0068857459	0.86668201	-0.079119877	-0.025513003	0.85232268	0.16254283	-0.18208237	0.91239858	0.027524313	-0.039659464	1.3102602	-0.13505848	-0.05559272	1.3203899	0.19809104	-0.11671761	1.3672444	0.029959964	-0.20265841	0.98639817	-0.18748008	-0.1708494	0.9575719	0.28312141	-0.13257335	0.73931208	-0.2404845	0.066104359	0.81690845	0.2385815
192	0.764	0.22901512	-0.033297293	0.0084979096	-0.55431284	0.061191591	0.095921659	0.083403172	-0.0040409734	-0.039335021	-0.59762279	0.20455684	0.13965421	0.097746621	0.016075667	0.057197927	-0.54813211	0.20233737	0.054680715	0.0085664207	-0.037020709	0.0018548248	-0.64069496	0.24742439	0.078838669	0.12887766	0.40384209	-0.097378226	-0.18675389	0.38606466	0.21692661	0.12899093	0.4081999	0.026846368	-0.17856657	0.35511544	0.091577813	-0.062387372	0.77900326	-0.1497981	-0.13414489	0.77060587	0.22062677	-0.00055238014	0.866858	-0.079662319	-0.019141026	0.85237142	0.16203736	-0.17579445	0.91301983	0.027156456	-0.032534257	1.3104561	-0.13530316	-0.048154286	1.3206644	0.19788038	-0.10950673	1.3677934	0.029674078	-0.1947735	0.9859876	-0.18805535	-0.16542753	0.95860967	0.28335153	-0.12273848	0.73915629	-0.24029157	0.0690679	0.81354617	0.23899599
193	0.768	0.22903134	-0.033368083	0.0084587967	-0.54869801	0.063188644	0.097356949	0.08345877	-0.0041986787	-0.039296684	-0.58651793	0.2086754	0.14126352	0.097883207	0.016008404	0.057160178	-0.53742691	0.2056527	0.055847363	0.0085428079	-0.036967668	0.0017817603	-0.62824683	0.25325978	0.080875145	0.13243457	0.40313346	-0.097198625	-0.17364726	0.38467153	0.21651945	0.13192073	0.40736862	0.026315457	-0.16643311	0.35435003	0.091657942	-0.055708305	0.77909157	-0.15018138	-0.1272665	0.77045791	0.2202375	0.0056675295	0.86707252	-0.080147873	-0.012949523	0.85258105	0.16159768	-0.16965119	0.91379615	0.026704199	-0.025402223	1.3107534	-0.13553389	-0.040911834	1.321072	0.19765277	-0.10231163	1.3684697	0.029370837	-0.18700006	0.98570677	-0.18877485	-0.15975058	0.9597788	0.28354907	-0.11281886	0.7391158	-0.24002727	0.071895684	0.81030101	0.23945401
194	0.772	0.22901604	-0.033415634	0.0084509722	-0.54220949	0.065379777	0.099016439	0.083433222	-0.0043182104	-0.039219218	-0.5751859	0.21258719	0.14278717	0.097967523	0.015960688	0.05711987	-0.52631277	0.20889698	0.057118758	0.0084906752	-0.036921598	0.0017278811	-0.61558088	0.25899649	0.082934944	0.13605734	0.40257412	-0.097216674	-0.16069295	0.38344516	0.21617629	0.13460957	0.40682437	0.025930803	-0.15405628	0.35396406	0.091677862	-0.049137271	0.77945893	-0.15055077	-0.12070704	0.77052308	0.219964	0.011825861	0.86736145	-0.080551362	-0.0069158132	0.85294807	0.16122144	-0.16364069	0.91472013	0.026172723	-0.018257458	1.3111629	-0.13573192	-0.033857149	1.3216289	0.19741449	-0.095147549	1.3692457	0.029057026	-0.17931811	0.98555229	-0.18953576	-0.15388772	0.96107048	0.28373622	-0.10281137	0.73921352	-0.23969662	0.074604009	0.80718103	0.23994859
195	0.776	0.22897914	-0.03344722	0.0084665124	-0.53458773	0.067853424	0.10088653	0.083380245	-0.0043922406	-0.039155992	-0.56364502	0.21636269	0.14420413	0.098016429	0.015932704	0.057085251	-0.5146957	0.21207706	0.058606478	0.0084164243	-0.036876028	0.0016880491	-0.60275794	0.2645777	0.085000099	0.13959032	0.4021774	-0.097473899	-0.14758486	0.38238117	0.21586632	0.13713569	0.40652282	0.02568326	-0.14148176	0.3539029	0.091542601	-0.042760499	0.78015026	-0.15088479	-0.11451431	0.77076512	0.21984497	0.017995267	0.86777145	-0.080847011	-0.00097651234	0.85347918	0.16092765	-0.15776017	0.91577721	0.02558146	-0.011112583	1.3116942	-0.13589675	-0.02695844	1.3223516	0.19719142	-0.088019099	1.370108	0.028733775	-0.17166903	0.98551065	-0.19022455	-0.14792111	0.96247632	0.28393772	-0.092728935	0.73947036	-0.23929978	0.07725954	0.80420257	0.24047837
196	0.78	0.22893684	-0.033468249	0.0084857846	-0.52568156	0.070641649	0.10291962	0.083346858	-0.004424807	-0.039139254	-0.55186909	0.22008256	0.14549587	0.098051321	0.015926356	0.057057257	-0.50269334	0.21531737	0.060145485	0.0083335652	-0.036822757	0.0016481473	-0.58984913	0.26991216	0.086994468	0.14295468	0.40199434	-0.098047324	-0.13455046	0.38157484	0.21552904	0.13948489	0.40637508	0.02551088	-0.12885581	0.35410227	0.091201333	-0.036611949	0.78116149	-0.15118525	-0.10863979	0.7711508	0.21985884	0.024207393	0.86833767	-0.081029446	0.0049349425	0.85417956	0.16073299	-0.15200124	0.91695096	0.024952325	-0.0039780301	1.3123494	-0.1360367	-0.020180545	1.3232409	0.1970112	-0.080928399	1.3710543	0.028402597	-0.16399028	0.98557837	-0.19082283	-0.14189724	0.96400102	0.28416515	-0.082594453	0.73989505	-0.2388348	0.079894848	0.80137932	0.2410479
197	0.784	0.22890468	-0.033480667	0.0084870211	-0.51550359	0.073707844	0.10505801	0.083356717	-0.0044300092	-0.039164486	-0.53981072	0.2238185	0.14664567	0.098096573	0.015936716	0.057033585	-0.49052133	0.21876408	0.061471185	0.0082575415	-0.036752789	0.0016005842	-0.57696565	0.27488125	0.088793193	0.14615998	0.40201602	-0.098929624	-0.12247734	0.38122788	0.21513109	0.1416496	0.40628646	0.025365803	-0.11633643	0.35451395	0.090679949	-0.030652362	0.7824435	-0.15147721	-0.10284313	0.77165742	0.21985725	0.030443985	0.86907033	-0.08111128	0.010826751	0.85503562	0.16061514	-0.14634915	0.91822567	0.024305176	0.0031536847	1.3131211	-0.13615058	-0.013513037	1.3242813	0.19687212	-0.073880726	1.3720915	0.028069952	-0.15624252	0.9857654	-0.19141641	-0.13583639	0.96565313	0.28441245	-0.072421166	0.74048777	-0.23830079	0.082499424	0.79871697	0.24166533
198	0.788	0.22888954	-0.03348715	0.0084578913	-0.50419279	0.076970188	0.10725347	0.083411711	-0.0044266865	-0.039206825	-0.52743251	0.22762211	0.14765418	0.098170248	0.015951764	0.057011723	-0.47830518	0.22246648	0.062458206	0.008199908	-0.036662976	0.0015527757	-0.56421621	0.27935872	0.090263225	0.14918011	0.40211888	-0.099893956	-0.1118537	0.38148185	0.21474998	0.14364878	0.40618466	0.025227445	-0.10397195	0.35510169	0.090033689	-0.02483805	0.78392686	-0.15178022	-0.096704595	0.77228378	0.21957345	0.036676318	0.86996104	-0.081105252	0.016658469	0.85601809	0.16052287	-0.14078614	0.91958654	0.023657818	0.010302558	1.3139964	-0.13622536	-0.0069703305	1.3254566	0.19674124	-0.066878943	1.3732274	0.027741457	-0.14843507	0.98608469	-0.19208032	-0.12975204	0.96743877	0.28466247	-0.062201553	0.7412494	-0.23770316	0.085053649	0.79621803	0.24233656
199	0.792	0.22888743	-0.033492133	0.0084009826	-0.49192174	0.080335346	0.10950615	0.083489633	-0.0044277407	-0.039243822	-0.51472284	0.23149787	0.1485463	0.098278913	0.015958821	0.056985633	-0.4660278	0.2263327	0.063149431	0.0081655408	-0.036560547	0.0015253359	-0.55162069	0.28327851	0.091331956	0.15193412	0.40215367	-0.10063475	-0.10186893	0.38227707	0.21456282	0.14551418	0.40603589	0.025081852	-0.091665842	0.35584741	0.089298044	-0.019186217	0.78554505	-0.15208884	-0.089962923	0.77304906	0.21885499	0.042872539	0.87099563	-0.081025498	0.022417809	0.85710743	0.16042719	-0.13529457	0.9210187	0.023027576	0.017485885	1.3149662	-0.13625009	-0.00055338792	1.3267595	0.1965948	-0.059916331	1.3744584	0.027418509	-0.14062518	0.98654831	-0.19276473	-0.12366027	0.96936112	0.28489717	-0.05192225	0.7421861	-0.23705134	0.087540027	0.79389078	0.2430631
200	0.796	0.22888782	-0.033498593	0.0083288017	-0.47881346	0.083734057	0.11189711	0.083552879	-0.0044316197	-0.039275339	-0.50169725	0.23537789	0.14935855	0.098423038	0.015950949	0.056938689	-0.45359534	0.2301519	0.063660153	0.0081559916	-0.036460649	0.0015468703	-0.53907416	0.28668314	0.092037473	0.15437947	0.40206621	-0.10103614	-0.091198967	0.3834232	0.21467369	0.14729131	0.40584933	0.024904454	-0.079293512	0.35675729	0.088488834	-0.013725303	0.78725118	-0.15238724	-0.082973854	0.77398523	0.21796743	0.048990032	0.87216219	-0.080895167	0.02814501	0.85830696	0.1603407	-0.12985984	0.92250548	0.022433162	0.024707378	1.3160302	-0.13623403	0.0057685951	1.328187	0.19644413	-0.052983917	1.3757726	0.027102662	-0.13286626	0.98716646	-0.19336225	-0.11757812	0.97141906	0.2851002	-0.041583584	0.74330797	-0.23634728	0.089944247	0.79175571	0.24384452
201	0.8	0.22888001	-0.03350573	0.0082534622	-0.46494846	0.087135105	0.11453739	0.083565292	-0.0044266515	-0.039323745	-0.48840054	0.23913831	0.15012121	0.09859875	0.015930847	0.056847953	-0.44092244	0.23368387	0.064093716	0.0081791271	-0.036380717	0.0016531033	-0.52640939	0.28968843	0.092499943	0.15652316	0.4018899	-0.10117662	-0.07924529	0.38474608	0.2149847	0.14902834	0.4056598	0.024676288	-0.0668203	0.35784424	0.08761297	-0.0084068387	0.78902766	-0.15266974	-0.076475774	0.77512371	0.2174263	0.055010268	0.87345136	-0.08074029	0.033877352	0.8596256	0.16028258	-0.12447304	0.92402711	0.021895999	0.031954956	1.3171944	-0.13621026	0.012028007	1.3297333	0.19631222	-0.046078909	1.3771699	0.026795551	-0.12516498	0.98793851	-0.19385685	-0.11152304	0.97360873	0.28525871	-0.03119831	0.74461994	-0.23558463	0.092261008	0.78983928	0.24467925
202	0.804	0.22885843	-0.033510931	0.0081787942	-0.45042934	0.090511922	0.11747254	0.083508949	-0.0044045006	-0.039409967	-0.47491381	0.24264535	0.15084725	0.098787441	0.015912119	0.056706833	-0.42797323	0.23678327	0.064513809	0.0082415067	-0.036329066	0.0018564626	-0.51350568	0.29239996	0.092844548	0.15834135	0.40166837	-0.10115053	-0.066279038	0.38614353	0.21525923	0.15074486	0.40549822	0.024414355	-0.054270834	0.35910507	0.086672262	-0.0031180396	0.79087918	-0.1529345	-0.070711228	0.77644622	0.21740918	0.060979003	0.87485446	-0.080582683	0.039609658	0.86105698	0.16024381	-0.11912929	0.92556339	0.021439016	0.039213108	1.3184591	-0.13620635	0.018234112	1.3313864	0.19620573	-0.039200083	1.3786572	0.0264955	-0.11749877	0.98885008	-0.19431404	-0.10552365	0.97592396	0.28536531	-0.020783119	0.74611292	-0.23476349	0.09449711	0.78815475	0.24556147
203	0.808	0.22882428	-0.033513212	0.0081008834	-0.43539458	0.09381739	0.12064816	0.083400564	-0.0043694938	-0.039530648	-0.46134528	0.24579532	0.15152719	0.098954438	0.015913966	0.056538574	-0.41476537	0.23945367	0.064947684	0.0083182856	-0.036291043	0.0020923063	-0.50036005	0.29485481	0.093171093	0.15977646	0.40142274	-0.1009779	-0.052888416	0.38758024	0.21528022	0.15243203	0.4053773	0.024164713	-0.041611975	0.36053025	0.085684647	0.0022067085	0.79280846	-0.15317005	-0.065236049	0.77788275	0.21763777	0.06696527	0.87636087	-0.080433687	0.045304754	0.86257987	0.16018926	-0.11381324	0.92710484	0.021079755	0.046484229	1.3198109	-0.13620607	0.024382027	1.333127	0.19611705	-0.03234623	1.3802205	0.026202911	-0.10984927	0.98988445	-0.19477988	-0.099635543	0.97835129	0.28541724	-0.010358107	0.74776716	-0.23389814	0.096663975	0.78669596	0.24647861
